# xmcd CD database file
#
# Track frame offsets:
#	150
#	19003
#	40019
#	56924
#	70707
#	84060
#	99719
#	117294
#	135344
#	149505
#	173275
#
# Disc length: 2540 seconds
#
# Revision: 0
# Processed by: cddbd v1.5.2PL0 Copyright (c) Steve Scherf et al.
# Submitted via: CDex 1.51
#
DISCID=8509ea0b
DTITLE=Renee Yoxon and Rene Gely - Let's Call It A Day
DYEAR=2010
DGENRE=Jazz
TTITLE0=The Look of Love
TTITLE1=Willow Weep For Me
TTITLE2=Never Let Me Go
TTITLE3=Let's Call It A Day
TTITLE4=Candy
TTITLE5=Lover's Lullaby
TTITLE6=Centrepiece
TTITLE7=The Masquerade is Over
TTITLE8=Par Ce Beau Jour De Printemps
TTITLE9=Don't Explain
TTITLE10=One For My Baby (And One More For The Road)
EXTD=YEAR: 2010
EXTT0=
EXTT1=
EXTT2=
EXTT3=
EXTT4=
EXTT5=
EXTT6=
EXTT7=
EXTT8=
EXTT9=
EXTT10=
PLAYORDER=
